# xmcd
#
# Track frame offsets: 
#        150
#        12342
#        27933
#        42638
#        56444
#        67393
#        84122
#        95634
#        119696
#
# Disc length: 1794 seconds
#
# Revision: 0
# Processed by: cddbd v1.5.2PL0 Copyright (c) Steve Scherf et al.
# Submitted via: ExactAudioCopy v1.3
#
DISCID=7b070009
DTITLE=Bad Mama’s Blues Band - Steppin' on Broken Glass
DYEAR=2019
DGENRE=Blues
TTITLE0=The Lord's Dirty Work
TTITLE1=Modern Girl
TTITLE2=My House
TTITLE3=Virginia
TTITLE4=Sweet Queen Penny
TTITLE5=The Devil's Tango
TTITLE6=When I’m Gone
TTITLE7=All Alone Again
TTITLE8=The Drinkin’ Song
EXTD=
EXTT0=
EXTT1=
EXTT2=
EXTT3=
EXTT4=
EXTT5=
EXTT6=
EXTT7=
EXTT8=
PLAYORDER=
